<?xml version="1.0" encoding="utf-8"?>
<!-- Generator: Adobe Illustrator 23.0.1, SVG Export Plug-In . SVG Version: 6.00 Build 0)  -->
<svg version="1.1" id="Layer_1" xmlns="http://www.w3.org/2000/svg" xmlns:xlink="http://www.w3.org/1999/xlink" x="0px" y="0px"
	 viewBox="0 0 239.66 229.87" style="enable-background:new 0 0 239.66 229.87;" xml:space="preserve">
<style type="text/css">
	.st0{fill:#EFEFEF;}
</style>
<g>
	<path class="st0" d="M52.68,33.42L26.41,78.43c-1.06,1.79-0.29,3.36,0.72,5.11l50.48,88.86c1.11,1.94,2.34,2.54,4.48,2.55
		c21.07,0.17,37.74-0.02,58.79,0c2.2,0.03,3.36-1.45,4.46-3.36c13.85-23.72,25.04-43.37,38.75-67.06c0.4-0.69,2.78-4.61,3.53-5.85
		c4.18,7.29,8.57,14.91,12.39,21.83c0.37,0.68,0,2.06-0.46,2.86c-13.96,24.1-27.7,46.94-41.61,71.08c-1.16,2.02-2.58,2.06-4.38,2.06
		H76.59c-8.48,0.23-12.61-2.54-16.63-9.78L1.41,83.63c-1.3-2.26-2.03-4.15-0.71-6.38l24.04-41.17c1.08-1.85,2.19-2.71,4.44-2.66
		H52.68z"/>
	<path class="st0" d="M111.31,208.31l49.4,0.09c1.95,0.02,3.17-0.42,4.24-2.27l47.37-81.21c1.14-1.95,1.26-3.71,0.2-5.55
		l-34.99-61.42c-1.23-2.17-3.1-2.88-5.54-2.88l-73.12-0.08c-1.17-0.01-3.34,0.08-5.11,0l11.88-20.45c0.4-0.66,1.76-1.03,2.68-1.03
		l78.53,0.04c1.29,0.01,3.1,1.18,3.76,2.34l47.99,84.04c1.05,1.84,0.94,3.13-0.07,4.87l-59.99,102.97
		c-0.61,1.05-2.28,2.11-3.46,2.11h-49.24c-1.18-0.02-2.62-0.67-3.18-1.61L111.31,208.31z"/>
	<path class="st0" d="M111.39,163.19H87.23c-0.91-0.02-2.17-0.88-2.64-1.71l-44.75-78.8c-0.54-0.96-0.45-2.8,0.12-3.79L84.93,2.02
		c0.6-1.02,2.34-1.96,3.55-1.96L207.33,0c1.2,0.01,2.9,1.03,3.51,2.08l28.09,49.48c0.49,0.87,1,2.66,0.57,3.42
		c-3.94,7.05-7.79,13.33-12.3,21.07l-29.29-51.43c-1.19-2.1-2.45-2.99-4.96-2.99l-90.42-0.04c-2.2-0.02-3.33,0.68-4.42,2.57
		L66.04,78.94c-1.25,2.12-0.91,3.57,0.18,5.47L111.39,163.19z"/>
</g>
</svg>
